<?xml version="1.0" standalone="no"?>
<!DOCTYPE svg PUBLIC "-//W3C//DTD SVG 20010904//EN"
 "http://www.w3.org/TR/2001/REC-SVG-20010904/DTD/svg10.dtd">
<svg version="1.0" xmlns="http://www.w3.org/2000/svg"
 width="1024.000000pt" height="1024.000000pt" viewBox="0 0 1024.000000 1024.000000"
 preserveAspectRatio="xMidYMid meet">

<g transform="translate(0.000000,1024.000000) scale(0.100000,-0.100000)"
fill="#000000" stroke="none">
<path d="M6215 8097 c-21 -14 -250 -132 -780 -402 -170 -87 -445 -228 -610
-313 -165 -86 -383 -199 -485 -251 -102 -53 -411 -213 -686 -355 l-501 -259
-6 -315 c-4 -173 -7 -561 -7 -860 0 -300 -3 -542 -7 -539 -3 4 -6 42 -5 84 1
43 -1 72 -4 66 -3 -7 -14 -13 -24 -13 -10 0 -20 -5 -22 -11 -2 -5 -11 -7 -21
-4 -13 6 -17 19 -17 61 0 49 -2 54 -21 54 -20 0 -21 -4 -17 -52 3 -29 1 -66
-3 -83 -3 -16 -7 48 -8 143 l-1 172 25 0 c21 0 25 5 25 30 0 20 -5 30 -15 30
-8 0 -15 9 -15 20 0 18 7 20 60 20 l60 0 0 200 c0 110 -2 200 -3 200 -2 0 -40
-18 -85 -40 -44 -22 -83 -40 -86 -40 -3 0 -7 81 -8 180 l-3 179 -35 -16 c-19
-8 -167 -80 -327 -160 l-293 -144 0 -1568 0 -1568 128 -58 c70 -32 184 -84
254 -117 70 -32 163 -74 206 -92 l79 -34 -5 1313 -5 1313 26 -1 c14 -1 23 -5
21 -8 -2 -4 30 -21 71 -39 l75 -33 0 -1458 c0 -1155 3 -1459 13 -1466 26 -16
601 -288 1112 -526 l310 -144 5 812 5 813 295 -135 c162 -74 339 -154 393
-178 l97 -43 0 804 c0 442 2 804 5 804 3 0 161 -72 351 -160 191 -89 350 -162
354 -163 4 -1 135 90 290 202 l281 203 66 -27 c36 -16 212 -97 392 -180 316
-148 327 -152 351 -137 14 9 112 81 218 160 l192 144 0 778 0 778 -167 75
c-93 42 -265 118 -383 170 -118 52 -325 144 -460 205 -135 60 -325 144 -422
187 l-178 78 0 863 c0 917 2 883 -45 851z m-578 -832 c0 -8 -4 -12 -9 -9 -5 3
-6 10 -3 15 9 13 12 11 12 -6z m-27 -15 c0 -5 -2 -10 -4 -10 -3 0 -8 5 -11 10
-3 6 -1 10 4 10 6 0 11 -4 11 -10z m-40 -774 l0 -534 33 -15 c17 -8 61 -27 97
-42 36 -16 134 -59 218 -97 84 -37 155 -68 158 -68 5 0 146 -63 349 -158 335
-155 432 -195 446 -186 7 4 9 3 6 -3 -8 -12 110 -66 125 -57 6 4 8 3 5 -3 -4
-6 32 -27 81 -48 109 -47 112 -49 112 -94 l1 -36 19 35 c11 19 19 43 20 53 0
10 8 17 20 17 13 0 20 7 20 20 0 17 -7 20 -40 20 l-40 0 0 40 0 40 -40 0 -40
0 0 49 c0 28 5 53 12 57 6 4 8 3 5 -2 -3 -6 3 -15 13 -22 11 -7 21 -8 25 -2 8
13 35 1 35 -15 0 -7 -5 -15 -11 -17 -7 -2 4 -4 24 -4 22 0 32 3 24 8 -9 6 -9
8 0 8 6 0 18 -7 27 -15 8 -9 18 -16 21 -15 20 1 25 -2 25 -17 0 -12 3 -14 8
-7 5 9 17 8 45 -3 l37 -15 0 -514 c0 -283 -2 -514 -4 -514 -3 0 -40 16 -83 36
-43 20 -134 62 -203 94 -69 32 -207 96 -308 144 l-183 86 -173 -127 c-96 -71
-224 -165 -285 -209 l-111 -82 -57 29 c-52 26 -204 96 -587 270 -72 33 -134
55 -141 51 -6 -4 -93 -65 -193 -136 l-182 -129 -2 -413 -3 -413 -125 55 c-69
30 -170 76 -225 103 -55 27 -110 52 -122 56 -31 9 -29 25 2 25 14 0 25 5 25
10 0 6 7 10 15 10 8 0 15 -9 15 -20 0 -17 7 -20 39 -20 22 0 42 5 44 13 3 6 6
2 6 -10 1 -13 4 -23 9 -23 4 0 7 285 7 633 l0 633 -125 -58 -125 -58 -3 -545
c-2 -426 -5 -545 -15 -545 -6 1 -57 24 -112 53 l-100 52 -3 594 c-2 559 -3
593 -20 586 -32 -14 -167 -55 -212 -66 -24 -5 -50 -15 -57 -21 -10 -8 -13
-186 -13 -904 0 -840 1 -894 18 -904 16 -11 16 -11 0 -6 -17 5 -18 -25 -18
-531 0 -498 1 -537 18 -549 15 -13 14 -13 -9 -5 -15 5 -63 28 -108 50 l-81 41
0 1474 0 1473 63 28 c34 15 81 36 105 47 l42 20 0 123 0 123 138 75 c75 41
205 109 287 152 83 43 254 133 380 200 127 67 271 143 320 168 50 26 99 53
109 62 19 15 19 15 -5 42 -14 16 -72 80 -129 143 -57 63 -105 116 -106 118 -1
2 -219 -106 -485 -239 -266 -133 -495 -245 -509 -249 -22 -6 -26 -4 -27 14 -1
11 1 15 4 9 14 -36 23 -3 23 81 l0 95 163 84 c189 99 471 243 787 403 289 146
351 180 344 186 -3 4 1 5 8 5 7 -1 88 36 180 82 126 64 165 88 161 100 -4 13
-3 13 5 3 8 -12 14 -11 38 2 16 8 35 15 42 16 9 0 12 -113 12 -534z m30 494
c0 -5 -4 -10 -10 -10 -5 0 -10 5 -10 10 0 6 5 10 10 10 6 0 10 -4 10 -10z
m180 -487 c0 -218 -2 -394 -5 -392 -8 9 -11 789 -2 789 4 0 7 -179 7 -397z
m-193 255 c-2 -13 -4 -3 -4 22 0 25 2 35 4 23 2 -13 2 -33 0 -45z m2 -598 c-3
-47 -6 59 -5 235 l0 320 5 -235 c3 -129 3 -273 0 -320z m-1952 -22 c-2 -24 -4
-5 -4 42 0 47 2 66 4 43 2 -24 2 -62 0 -85z m290 76 c-3 -3 -12 -4 -19 -1 -8
3 -5 6 6 6 11 1 17 -2 13 -5z m1903 -130 c0 -2 -7 -4 -15 -4 -8 0 -15 4 -15
10 0 5 7 7 15 4 8 -4 15 -8 15 -10z m148 -68 c2 -2 -1 -7 -7 -11 -6 -3 -11 -1
-11 4 0 6 -6 11 -13 11 -7 0 -22 7 -33 15 -17 14 -14 14 20 0 22 -9 42 -17 44
-19z m15 -33 c-7 -2 -19 -2 -25 0 -7 3 -2 5 12 5 14 0 19 -2 13 -5z m-393 -13
c0 -5 -2 -10 -4 -10 -3 0 -8 5 -11 10 -3 6 -1 10 4 10 6 0 11 -4 11 -10z m510
-21 c0 -4 -11 -2 -25 4 -14 7 -25 15 -25 19 0 4 11 2 25 -4 14 -6 25 -15 25
-19z m-2360 -28 c0 -5 -7 -12 -16 -15 -14 -5 -15 -4 -4 9 14 17 20 19 20 6z
m2443 -6 c8 -8 16 -12 18 -11 2 2 31 -9 64 -25 33 -16 51 -26 40 -23 -11 4
-30 7 -42 7 -13 -1 -21 3 -18 7 3 5 -16 15 -42 22 -25 7 -48 19 -51 26 -5 17
13 15 31 -3z m-2535 -29 c12 -7 12 -10 1 -17 -24 -15 -29 -10 -28 24 0 17 3
25 6 17 3 -8 13 -19 21 -24z m2722 -51 c14 -8 21 -14 15 -14 -5 0 -21 6 -35
14 -14 8 -20 14 -15 14 6 0 21 -6 35 -14z m157 -74 c10 -6 14 -11 10 -11 -12
0 -97 40 -97 45 0 6 59 -18 87 -34z m151 -66 c45 -18 54 -31 23 -31 -11 0 -17
4 -15 8 7 10 -66 39 -79 31 -6 -4 -7 -1 -3 6 5 7 13 10 20 8 6 -3 30 -13 54
-22z m137 -65 c3 -5 -1 -10 -9 -10 -9 0 -16 5 -16 10 0 6 4 10 9 10 6 0 13 -4
16 -10z m40 -20 c3 -5 -1 -10 -9 -10 -9 0 -16 5 -16 10 0 6 4 10 9 10 6 0 13
-4 16 -10z m108 -46 c27 -13 33 -21 29 -40 -2 -13 -9 -24 -14 -24 -6 0 -8 11
-6 25 3 13 2 23 -1 20 -4 -2 -18 5 -31 16 -31 23 -22 24 23 3z m-13 -24 c0 -5
-2 -10 -4 -10 -3 0 -8 5 -11 10 -3 6 -1 10 4 10 6 0 11 -4 11 -10z m110 -20
c13 -8 13 -10 1 -10 -12 0 -12 -3 -3 -12 18 -18 14 -38 -7 -38 -12 0 -20 9
-23 25 -3 14 -1 25 4 25 5 0 6 5 3 10 -8 13 5 13 25 0z m-4101 -423 c-5 -190
-5 -184 -6 98 0 165 3 256 6 202 3 -54 4 -189 0 -300z m4201 373 c0 -5 -2 -10
-4 -10 -3 0 -8 5 -11 10 -3 6 -1 10 4 10 6 0 11 -4 11 -10z m-4145 -580 c3 -5
1 -10 -4 -10 -6 0 -11 5 -11 10 0 6 2 10 4 10 3 0 8 -4 11 -10z m1326 -1093
c-10 -9 -11 -8 -5 6 3 10 9 15 12 12 3 -3 0 -11 -7 -18z m-497 -633 c3 -8 2
-12 -4 -9 -6 3 -10 10 -10 16 0 14 7 11 14 -7z m171 -72 c-3 -3 -11 0 -18 7
-9 10 -8 11 6 5 10 -3 15 -9 12 -12z m205 -87 l110 -55 0 -550 c0 -434 -3
-550 -12 -549 -7 0 -60 24 -118 52 l-105 52 -3 553 c-1 372 1 552 8 552 6 0
60 -25 120 -55z"/>
<path d="M5060 5821 c-94 -31 -174 -97 -221 -183 -32 -60 -34 -68 -34 -163 0
-89 3 -106 27 -155 75 -152 246 -244 396 -211 238 51 364 295 261 508 -61 126
-182 204 -324 210 -44 1 -91 -1 -105 -6z"/>
<path d="M7280 5380 c-13 -8 -12 -10 3 -10 9 0 17 5 17 10 0 12 -1 12 -20 0z"/>
<path d="M6213 5204 l-171 -116 -127 62 c-70 34 -133 59 -141 56 -11 -4 -140
-91 -248 -166 -11 -8 -77 -52 -145 -99 -96 -66 -120 -86 -107 -93 17 -9 368
-160 576 -248 69 -29 142 -61 164 -71 l38 -18 177 123 c153 107 365 256 590
414 l64 45 -194 95 c-184 89 -280 132 -298 132 -4 0 -84 -52 -178 -116z m-498
-202 c-3 -3 -11 0 -18 7 -9 10 -8 11 6 5 10 -3 15 -9 12 -12z m70 -30 c-3 -3
-11 0 -18 7 -9 10 -8 11 6 5 10 -3 15 -9 12 -12z m80 -32 c3 -6 -1 -7 -9 -4
-18 7 -21 14 -7 14 6 0 13 -4 16 -10z m181 -151 c1 -68 0 -69 -3 -11 -3 43 -9
65 -18 69 -17 6 -9 26 8 20 8 -2 12 -31 13 -78z"/>
<path d="M7203 5020 c0 -36 2 -50 4 -32 2 17 2 47 0 65 -2 17 -4 3 -4 -33z"/>
<path d="M7204 4800 c0 -69 1 -97 3 -62 2 34 2 90 0 125 -2 34 -3 6 -3 -63z"/>
<path d="M7203 4540 c0 -36 2 -50 4 -32 2 17 2 47 0 65 -2 17 -4 3 -4 -33z"/>
</g>
</svg>
